{"asset":{"version":"2.0","generator":"Blockbench 4.9.3 glTF exporter"},"scenes":[{"nodes":[1],"name":"blockbench_export"}],"scene":0,"nodes":[{"name":"Grass","mesh":0},{"children":[0]}],"bufferViews":[{"buffer":0,"byteOffset":0,"byteLength":1320,"target":34962,"byteStride":12},{"buffer":0,"byteOffset":1320,"byteLength":1320,"target":34962,"byteStride":12},{"buffer":0,"byteOffset":2640,"byteLength":880,"target":34962,"byteStride":8},{"buffer":0,"byteOffset":3520,"byteLength":300,"target":34963}],"buffers":[{"byteLength":3820,"uri":"data:application/octet-stream;base64,"}],"accessors":[{"bufferView":0,"componentType":5126,"count":110,"max":[0.10968022793531418,0.4906249940395355,0.13437579572200775],"min":[-0.1501053273677826,-0.00937500037252903,-0.12766632437705994],"type":"VEC3"},{"bufferView":1,"componentType":5126,"count":110,"max":[0.7056502103805542,0.2668790817260742,0.9984217286109924],"min":[-0.7058374285697937,-0.06906545162200928,-0.9756097793579102],"type":"VEC3"},{"bufferView":2,"componentType":5126,"count":110,"max":[1,1],"min":[0,0],"type":"VEC2"},{"bufferView":3,"componentType":5123,"count":150,"max":[109],"min":[0],"type":"SCALAR"}],"materials":[{"pbrMetallicRoughness":{"metallicFactor":0,"roughnessFactor":1},"alphaMode":"MASK","alphaCutoff":0.05,"doubleSided":true}],"meshes":[{"primitives":[{"mode":4,"attributes":{"POSITION":0,"NORMAL":1,"TEXCOORD_0":2},"indices":3,"material":0}]}]}