{"asset":{"version":"2.0","generator":"Blockbench 4.9.4 glTF exporter"},"scenes":[{"nodes":[5],"name":"blockbench_export"}],"scene":0,"nodes":[{"rotation":[-0.21643961393810288,0,0,0.9762960071199334],"name":"cube","mesh":0},{"name":"cube","mesh":1},{"name":"vine","mesh":2},{"name":"cube","mesh":3},{"name":"Vines","children":[1,2,3]},{"children":[0,4]}],"bufferViews":[{"buffer":0,"byteOffset":0,"byteLength":4512,"target":34962,"byteStride":12},{"buffer":0,"byteOffset":4512,"byteLength":4512,"target":34962,"byteStride":12},{"buffer":0,"byteOffset":9024,"byteLength":3008,"target":34962,"byteStride":8},{"buffer":0,"byteOffset":12032,"byteLength":1128,"target":34963},{"buffer":0,"byteOffset":13160,"byteLength":3360,"target":34962,"byteStride":12},{"buffer":0,"byteOffset":16520,"byteLength":3360,"target":34962,"byteStride":12},{"buffer":0,"byteOffset":19880,"byteLength":2240,"target":34962,"byteStride":8},{"buffer":0,"byteOffset":22120,"byteLength":840,"target":34963},{"buffer":0,"byteOffset":22960,"byteLength":672,"target":34962,"byteStride":12},{"buffer":0,"byteOffset":23632,"byteLength":672,"target":34962,"byteStride":12},{"buffer":0,"byteOffset":24304,"byteLength":448,"target":34962,"byteStride":8},{"buffer":0,"byteOffset":24752,"byteLength":168,"target":34963},{"buffer":0,"byteOffset":24920,"byteLength":3360,"target":34962,"byteStride":12},{"buffer":0,"byteOffset":28280,"byteLength":3360,"target":34962,"byteStride":12},{"buffer":0,"byteOffset":31640,"byteLength":2240,"target":34962,"byteStride":8},{"buffer":0,"byteOffset":33880,"byteLength":840,"target":34963}],"buffers":[{"byteLength":34720,"uri":"data:application/octet-stream;base64,"}],"accessors":[{"bufferView":0,"componentType":5126,"count":376,"max":[1,1.875,1.3125],"min":[-0.9375,-0.203125,-0.765625],"type":"VEC3"},{"bufferView":1,"componentType":5126,"count":376,"max":[1,1,1],"min":[-1,-1,-1],"type":"VEC3"},{"bufferView":2,"componentType":5126,"count":376,"max":[0.5933738350868225,0.6084154844284058],"min":[0,0],"type":"VEC2"},{"bufferView":3,"componentType":5123,"count":564,"max":[375],"min":[0],"type":"SCALAR"},{"bufferView":4,"componentType":5126,"count":280,"max":[-0.9375,1.875,1],"min":[-1.0625,1.1875,-0.1875],"type":"VEC3"},{"bufferView":5,"componentType":5126,"count":280,"max":[1,1,1],"min":[-1,-1,-0.9103664755821228],"type":"VEC3"},{"bufferView":6,"componentType":5126,"count":280,"max":[0.5,0.5365023612976074],"min":[0.078125,0.03125],"type":"VEC2"},{"bufferView":7,"componentType":5123,"count":420,"max":[279],"min":[0],"type":"SCALAR"},{"bufferView":8,"componentType":5126,"count":56,"max":[0.9375,2.25,0.9375],"min":[-0.75,0.75,-0.0625],"type":"VEC3"},{"bufferView":9,"componentType":5126,"count":56,"max":[1,1,1],"min":[-1,-1,-1],"type":"VEC3"},{"bufferView":10,"componentType":5126,"count":56,"max":[0.5703125,0.4765625],"min":[0,0],"type":"VEC2"},{"bufferView":11,"componentType":5123,"count":84,"max":[55],"min":[0],"type":"SCALAR"},{"bufferView":12,"componentType":5126,"count":280,"max":[1.125,1.875,1],"min":[1,1.1875,-0.0625],"type":"VEC3"},{"bufferView":13,"componentType":5126,"count":280,"max":[1,1,1],"min":[-1,-1,-1],"type":"VEC3"},{"bufferView":14,"componentType":5126,"count":280,"max":[0.484375,0.4921875],"min":[0,0.15625],"type":"VEC2"},{"bufferView":15,"componentType":5123,"count":420,"max":[279],"min":[0],"type":"SCALAR"}],"materials":[{"pbrMetallicRoughness":{"metallicFactor":0,"roughnessFactor":1,"baseColorTexture":{"index":0}},"alphaMode":"MASK","alphaCutoff":0.05,"doubleSided":true},{"pbrMetallicRoughness":{"metallicFactor":0,"roughnessFactor":1,"baseColorTexture":{"index":1}},"alphaMode":"MASK","alphaCutoff":0.05,"doubleSided":true}],"textures":[{"sampler":0,"source":0},{"sampler":1,"source":1}],"samplers":[{"magFilter":9728,"minFilter":9728,"wrapS":33071,"wrapT":33071},{"magFilter":9728,"minFilter":9728,"wrapS":33071,"wrapT":33071}],"images":[{"mimeType":"image/png","uri":"data:image/png;base64,"},{"mimeType":"image/png","uri":"data:image/png;base64,"}],"meshes":[{"primitives":[{"mode":4,"attributes":{"POSITION":0,"NORMAL":1,"TEXCOORD_0":2},"indices":3,"material":0}]},{"primitives":[{"mode":4,"attributes":{"POSITION":4,"NORMAL":5,"TEXCOORD_0":6},"indices":7,"material":1}]},{"primitives":[{"mode":4,"attributes":{"POSITION":8,"NORMAL":9,"TEXCOORD_0":10},"indices":11,"material":1}]},{"primitives":[{"mode":4,"attributes":{"POSITION":12,"NORMAL":13,"TEXCOORD_0":14},"indices":15,"material":1}]}]}