{"asset":{"version":"2.0","generator":"Blockbench 4.9.4 glTF exporter"},"scenes":[{"nodes":[8],"name":"blockbench_export"}],"scene":0,"nodes":[{"name":"sphere","mesh":0},{"name":"cube","mesh":1},{"name":"cube","mesh":2},{"name":"cylinder","mesh":3},{"name":"cylinder","mesh":4},{"rotation":[-0.3826834323650898,0,0,0.9238795325112867],"translation":[-4.122299873020154e-18,0.2737083282232693,0.10448737346823744],"name":"cylinder","mesh":5},{"rotation":[-0.3826834323650898,0,0,0.9238795325112867],"translation":[-4.122299873020154e-18,0.2737083282232693,0.10448737346823744],"name":"invcylinder","mesh":6},{"name":"sinktop","children":[0,1,2,3,4,5,6]},{"children":[7]}],"bufferViews":[{"buffer":0,"byteOffset":0,"byteLength":1008,"target":34962,"byteStride":12},{"buffer":0,"byteOffset":1008,"byteLength":1008,"target":34962,"byteStride":12},{"buffer":0,"byteOffset":2016,"byteLength":672,"target":34962,"byteStride":8},{"buffer":0,"byteOffset":2688,"byteLength":216,"target":34963},{"buffer":0,"byteOffset":2904,"byteLength":240,"target":34962,"byteStride":12},{"buffer":0,"byteOffset":3144,"byteLength":240,"target":34962,"byteStride":12},{"buffer":0,"byteOffset":3384,"byteLength":160,"target":34962,"byteStride":8},{"buffer":0,"byteOffset":3544,"byteLength":60,"target":34963},{"buffer":0,"byteOffset":3604,"byteLength":288,"target":34962,"byteStride":12},{"buffer":0,"byteOffset":3892,"byteLength":288,"target":34962,"byteStride":12},{"buffer":0,"byteOffset":4180,"byteLength":192,"target":34962,"byteStride":8},{"buffer":0,"byteOffset":4372,"byteLength":72,"target":34963},{"buffer":0,"byteOffset":4444,"byteLength":3168,"target":34962,"byteStride":12},{"buffer":0,"byteOffset":7612,"byteLength":3168,"target":34962,"byteStride":12},{"buffer":0,"byteOffset":10780,"byteLength":2112,"target":34962,"byteStride":8},{"buffer":0,"byteOffset":12892,"byteLength":720,"target":34963},{"buffer":0,"byteOffset":13612,"byteLength":1440,"target":34962,"byteStride":12},{"buffer":0,"byteOffset":15052,"byteLength":1440,"target":34962,"byteStride":12},{"buffer":0,"byteOffset":16492,"byteLength":960,"target":34962,"byteStride":8},{"buffer":0,"byteOffset":17452,"byteLength":288,"target":34963},{"buffer":0,"byteOffset":17740,"byteLength":3744,"target":34962,"byteStride":12},{"buffer":0,"byteOffset":21484,"byteLength":3744,"target":34962,"byteStride":12},{"buffer":0,"byteOffset":25228,"byteLength":2496,"target":34962,"byteStride":8},{"buffer":0,"byteOffset":27724,"byteLength":864,"target":34963},{"buffer":0,"byteOffset":28588,"byteLength":3744,"target":34962,"byteStride":12},{"buffer":0,"byteOffset":32332,"byteLength":3744,"target":34962,"byteStride":12},{"buffer":0,"byteOffset":36076,"byteLength":2496,"target":34962,"byteStride":8},{"buffer":0,"byteOffset":38572,"byteLength":864,"target":34963}],"buffers":[{"byteLength":39436,"uri":"data:application/octet-stream;base64,"}],"accessors":[{"bufferView":0,"componentType":5126,"count":84,"max":[0.22099365293979645,0.125,0.22099365293979645],"min":[-0.22099365293979645,0,-0.22099365293979645],"type":"VEC3"},{"bufferView":1,"componentType":5126,"count":84,"max":[0.7071067690849304,0.9659258127212524,0.7071067690849304],"min":[-0.7071067690849304,0.7071067690849304,-0.7071067690849304],"type":"VEC3"},{"bufferView":2,"componentType":5126,"count":84,"max":[0.6449702978134155,0.65625],"min":[0.011279682628810406,0.025362789630889893],"type":"VEC2"},{"bufferView":3,"componentType":5123,"count":108,"max":[83],"min":[0],"type":"SCALAR"},{"bufferView":4,"componentType":5126,"count":20,"max":[0.21875,0.125,0.21875],"min":[-0.21875,0,-0.21875],"type":"VEC3"},{"bufferView":5,"componentType":5126,"count":20,"max":[0.9987522959709167,0,1],"min":[-1,-1,-1],"type":"VEC3"},{"bufferView":6,"componentType":5126,"count":20,"max":[0.5625,0.53125],"min":[0,0],"type":"VEC2"},{"bufferView":7,"componentType":5123,"count":30,"max":[19],"min":[0],"type":"SCALAR"},{"bufferView":8,"componentType":5126,"count":24,"max":[0.21875,0.125,0.34375],"min":[-0.21875,0,0.21875],"type":"VEC3"},{"bufferView":9,"componentType":5126,"count":24,"max":[1,1,1],"min":[-1,-1,-1],"type":"VEC3"},{"bufferView":10,"componentType":5126,"count":24,"max":[0.71875,0.5625],"min":[0.25,0],"type":"VEC2"},{"bufferView":11,"componentType":5123,"count":36,"max":[23],"min":[0],"type":"SCALAR"},{"bufferView":12,"componentType":5126,"count":264,"max":[0.03125,0.234375,0.3125],"min":[-0.03125,0.015625,0.25],"type":"VEC3"},{"bufferView":13,"componentType":5126,"count":264,"max":[1,1,1],"min":[-1,-1,-1],"type":"VEC3"},{"bufferView":14,"componentType":5126,"count":264,"max":[0.6844375133514404,0.765625],"min":[0.34375,0.09375],"type":"VEC2"},{"bufferView":15,"componentType":5123,"count":360,"max":[263],"min":[0],"type":"SCALAR"},{"bufferView":16,"componentType":5126,"count":120,"max":[0.03750000149011612,0.265625,0.3187499940395355],"min":[-0.03750000149011612,0.234375,0.21250000596046448],"type":"VEC3"},{"bufferView":17,"componentType":5126,"count":120,"max":[1,1,1],"min":[-1,-1,-0.7071067690849304],"type":"VEC3"},{"bufferView":18,"componentType":5126,"count":120,"max":[0.737500011920929,0.7093750238418579],"min":[0.18805000185966492,0.02499997615814209],"type":"VEC2"},{"bufferView":19,"componentType":5123,"count":144,"max":[119],"min":[0],"type":"SCALAR"},{"bufferView":20,"componentType":5126,"count":312,"max":[0.015625,0.03125,0.05104166641831398],"min":[-0.015625,-0.1875,-0.016646627336740494],"type":"VEC3"},{"bufferView":21,"componentType":5126,"count":312,"max":[1,0.9960381388664246,1],"min":[-1,-1,-1],"type":"VEC3"},{"bufferView":22,"componentType":5126,"count":312,"max":[0.7668812274932861,0.7820062637329102],"min":[0.007781249936670065,0.109375],"type":"VEC2"},{"bufferView":23,"componentType":5123,"count":432,"max":[311],"min":[0],"type":"SCALAR"},{"bufferView":24,"componentType":5126,"count":312,"max":[0.015625,0.03125,0.05104127153754234],"min":[-0.015625,-0.1875,-0.016646230593323708],"type":"VEC3"},{"bufferView":25,"componentType":5126,"count":312,"max":[1,1,1],"min":[-1,-0.996038019657135,-1],"type":"VEC3"},{"bufferView":26,"componentType":5126,"count":312,"max":[0.7668812274932861,0.7820062637329102],"min":[0.007781249936670065,0.109375],"type":"VEC2"},{"bufferView":27,"componentType":5123,"count":432,"max":[311],"min":[0],"type":"SCALAR"}],"materials":[{"pbrMetallicRoughness":{"metallicFactor":0,"roughnessFactor":1,"baseColorTexture":{"index":0}},"alphaMode":"MASK","alphaCutoff":0.05,"doubleSided":true}],"textures":[{"sampler":0,"source":0}],"samplers":[{"magFilter":9728,"minFilter":9728,"wrapS":33071,"wrapT":33071}],"images":[{"mimeType":"image/png","uri":"data:image/png;base64,"}],"meshes":[{"primitives":[{"mode":4,"attributes":{"POSITION":0,"NORMAL":1,"TEXCOORD_0":2},"indices":3,"material":0}]},{"primitives":[{"mode":4,"attributes":{"POSITION":4,"NORMAL":5,"TEXCOORD_0":6},"indices":7,"material":0}]},{"primitives":[{"mode":4,"attributes":{"POSITION":8,"NORMAL":9,"TEXCOORD_0":10},"indices":11,"material":0}]},{"primitives":[{"mode":4,"attributes":{"POSITION":12,"NORMAL":13,"TEXCOORD_0":14},"indices":15,"material":0}]},{"primitives":[{"mode":4,"attributes":{"POSITION":16,"NORMAL":17,"TEXCOORD_0":18},"indices":19,"material":0}]},{"primitives":[{"mode":4,"attributes":{"POSITION":20,"NORMAL":21,"TEXCOORD_0":22},"indices":23,"material":0}]},{"primitives":[{"mode":4,"attributes":{"POSITION":24,"NORMAL":25,"TEXCOORD_0":26},"indices":27,"material":0}]}]}