{"asset":{"version":"2.0","generator":"Blockbench 4.9.4 glTF exporter"},"scenes":[{"nodes":[9],"name":"blockbench_export"}],"scene":0,"nodes":[{"translation":[0,0.13125,0],"name":"cube","mesh":0},{"translation":[0,0.13125,0],"name":"sphere","mesh":1},{"rotation":[-0.7071067811865475,0,0,0.7071067811865476],"translation":[5.573865594941872e-18,0.6883116739923469,0.5],"name":"sphere","mesh":2},{"translation":[0,0.13125,0],"name":"cube","mesh":3},{"translation":[0,0.13125,0],"name":"cube","mesh":4},{"translation":[0,0.13125,0],"name":"cube","mesh":5},{"rotation":[0,0.7071067811865475,0,0.7071067811865476],"translation":[0.3359375,1.2484375,0.34375],"name":"cube","mesh":6},{"translation":[0,0.13125,0],"name":"cube","mesh":7},{"translation":[0,0.13125,0],"name":"invsphere","mesh":8},{"children":[0,1,2,3,4,5,6,7,8]}],"bufferViews":[{"buffer":0,"byteOffset":0,"byteLength":288,"target":34962,"byteStride":12},{"buffer":0,"byteOffset":288,"byteLength":288,"target":34962,"byteStride":12},{"buffer":0,"byteOffset":576,"byteLength":192,"target":34962,"byteStride":8},{"buffer":0,"byteOffset":768,"byteLength":72,"target":34963},{"buffer":0,"byteOffset":840,"byteLength":2736,"target":34962,"byteStride":12},{"buffer":0,"byteOffset":3576,"byteLength":2736,"target":34962,"byteStride":12},{"buffer":0,"byteOffset":6312,"byteLength":1824,"target":34962,"byteStride":8},{"buffer":0,"byteOffset":8136,"byteLength":648,"target":34963},{"buffer":0,"byteOffset":8784,"byteLength":2448,"target":34962,"byteStride":12},{"buffer":0,"byteOffset":11232,"byteLength":2448,"target":34962,"byteStride":12},{"buffer":0,"byteOffset":13680,"byteLength":1632,"target":34962,"byteStride":8},{"buffer":0,"byteOffset":15312,"byteLength":576,"target":34963},{"buffer":0,"byteOffset":15888,"byteLength":288,"target":34962,"byteStride":12},{"buffer":0,"byteOffset":16176,"byteLength":288,"target":34962,"byteStride":12},{"buffer":0,"byteOffset":16464,"byteLength":192,"target":34962,"byteStride":8},{"buffer":0,"byteOffset":16656,"byteLength":72,"target":34963},{"buffer":0,"byteOffset":16728,"byteLength":288,"target":34962,"byteStride":12},{"buffer":0,"byteOffset":17016,"byteLength":288,"target":34962,"byteStride":12},{"buffer":0,"byteOffset":17304,"byteLength":192,"target":34962,"byteStride":8},{"buffer":0,"byteOffset":17496,"byteLength":72,"target":34963},{"buffer":0,"byteOffset":17568,"byteLength":288,"target":34962,"byteStride":12},{"buffer":0,"byteOffset":17856,"byteLength":288,"target":34962,"byteStride":12},{"buffer":0,"byteOffset":18144,"byteLength":192,"target":34962,"byteStride":8},{"buffer":0,"byteOffset":18336,"byteLength":72,"target":34963},{"buffer":0,"byteOffset":18408,"byteLength":288,"target":34962,"byteStride":12},{"buffer":0,"byteOffset":18696,"byteLength":288,"target":34962,"byteStride":12},{"buffer":0,"byteOffset":18984,"byteLength":192,"target":34962,"byteStride":8},{"buffer":0,"byteOffset":19176,"byteLength":72,"target":34963},{"buffer":0,"byteOffset":19248,"byteLength":288,"target":34962,"byteStride":12},{"buffer":0,"byteOffset":19536,"byteLength":288,"target":34962,"byteStride":12},{"buffer":0,"byteOffset":19824,"byteLength":192,"target":34962,"byteStride":8},{"buffer":0,"byteOffset":20016,"byteLength":72,"target":34963},{"buffer":0,"byteOffset":20088,"byteLength":2736,"target":34962,"byteStride":12},{"buffer":0,"byteOffset":22824,"byteLength":2736,"target":34962,"byteStride":12},{"buffer":0,"byteOffset":25560,"byteLength":1824,"target":34962,"byteStride":8},{"buffer":0,"byteOffset":27384,"byteLength":648,"target":34963}],"buffers":[{"byteLength":28032,"uri":"data:application/octet-stream;base64,"}],"accessors":[{"bufferView":0,"componentType":5126,"count":24,"max":[0.15625,0.25,0.25],"min":[-0.15625,-0.125,-0.125],"type":"VEC3"},{"bufferView":1,"componentType":5126,"count":24,"max":[1,1,1],"min":[-1,-1,-1],"type":"VEC3"},{"bufferView":2,"componentType":5126,"count":24,"max":[0.84375,0.796875],"min":[0,0.109375],"type":"VEC2"},{"bufferView":3,"componentType":5123,"count":36,"max":[23],"min":[0],"type":"SCALAR"},{"bufferView":4,"componentType":5126,"count":228,"max":[0.375,0.4832531809806824,0.3125],"min":[-0.375,0.25,-0.3125],"type":"VEC3"},{"bufferView":5,"componentType":5126,"count":228,"max":[0.729126513004303,0.9991419911384583,0.7876648306846619],"min":[-0.729126513004303,-0.8660253882408142,-0.7876648306846619],"type":"VEC3"},{"bufferView":6,"componentType":5126,"count":228,"max":[0.7300276756286621,0.828125],"min":[0.00434734346345067,0.25],"type":"VEC2"},{"bufferView":7,"componentType":5123,"count":324,"max":[227],"min":[0],"type":"SCALAR"},{"bufferView":8,"componentType":5126,"count":204,"max":[0.375,0.301191508769989,0.625],"min":[-0.375,0.19293832778930664,-0.25],"type":"VEC3"},{"bufferView":9,"componentType":5126,"count":204,"max":[0.5,0.9913228154182434,0.4435327649116516],"min":[-0.5,-0.9993693828582764,-0.4435327649116516],"type":"VEC3"},{"bufferView":10,"componentType":5126,"count":204,"max":[0.4642792046070099,0.4417651295661926],"min":[0.2700957953929901,0.011407315731048584],"type":"VEC2"},{"bufferView":11,"componentType":5123,"count":288,"max":[203],"min":[0],"type":"SCALAR"},{"bufferView":12,"componentType":5126,"count":24,"max":[0.25,0.3218750059604645,0.5],"min":[-0.25,-0.13124999403953552,0.25],"type":"VEC3"},{"bufferView":13,"componentType":5126,"count":24,"max":[1,1,1],"min":[-1,-1,-1],"type":"VEC3"},{"bufferView":14,"componentType":5126,"count":24,"max":[0.859375,0.859375],"min":[0.375,0.171875],"type":"VEC2"},{"bufferView":15,"componentType":5123,"count":36,"max":[23],"min":[0],"type":"SCALAR"},{"bufferView":16,"componentType":5126,"count":24,"max":[0.40625,1.1875,0.75],"min":[-0.390625,0.3125,0.375],"type":"VEC3"},{"bufferView":17,"componentType":5126,"count":24,"max":[1,1,1],"min":[-1,-1,-1],"type":"VEC3"},{"bufferView":18,"componentType":5126,"count":24,"max":[0.734375,0.6875],"min":[0,0],"type":"VEC2"},{"bufferView":19,"componentType":5123,"count":36,"max":[23],"min":[0],"type":"SCALAR"},{"bufferView":20,"componentType":5126,"count":24,"max":[0.359375,1.125,0.375],"min":[0.3125,1.109375,0.3125],"type":"VEC3"},{"bufferView":21,"componentType":5126,"count":24,"max":[1,1,1],"min":[-1,-1,-1],"type":"VEC3"},{"bufferView":22,"componentType":5126,"count":24,"max":[0.484375,0.484375],"min":[0.265625,0],"type":"VEC2"},{"bufferView":23,"componentType":5123,"count":36,"max":[23],"min":[0],"type":"SCALAR"},{"bufferView":24,"componentType":5126,"count":24,"max":[0.02968749962747097,0.0078125,0.08437500149011612],"min":[-0.01718750037252903,-0.0078125,0.02187499962747097],"type":"VEC3"},{"bufferView":25,"componentType":5126,"count":24,"max":[1,1,1],"min":[-1,-1,-1],"type":"VEC3"},{"bufferView":26,"componentType":5126,"count":24,"max":[0.53125,0.546875],"min":[0.375,0.34375],"type":"VEC2"},{"bufferView":27,"componentType":5123,"count":36,"max":[23],"min":[0],"type":"SCALAR"},{"bufferView":28,"componentType":5126,"count":24,"max":[0.3125,1.25,0.65625],"min":[-0.3125,1.1875,0.46875],"type":"VEC3"},{"bufferView":29,"componentType":5126,"count":24,"max":[1,1,1],"min":[-1,-1,-1],"type":"VEC3"},{"bufferView":30,"componentType":5126,"count":24,"max":[0.96875,0.71875],"min":[0.34375,0],"type":"VEC2"},{"bufferView":31,"componentType":5123,"count":36,"max":[23],"min":[0],"type":"SCALAR"},{"bufferView":32,"componentType":5126,"count":228,"max":[0.375,0.4832531809806824,0.3125],"min":[-0.375,0.25,-0.3125],"type":"VEC3"},{"bufferView":33,"componentType":5126,"count":228,"max":[0.729126513004303,0.9882444739341736,0.7876648306846619],"min":[-0.729126513004303,-0.9991419911384583,-0.7876648306846619],"type":"VEC3"},{"bufferView":34,"componentType":5126,"count":228,"max":[0.7300276756286621,0.828125],"min":[0.00434734346345067,0.25],"type":"VEC2"},{"bufferView":35,"componentType":5123,"count":324,"max":[227],"min":[0],"type":"SCALAR"}],"materials":[{"pbrMetallicRoughness":{"metallicFactor":0,"roughnessFactor":1,"baseColorTexture":{"index":0}},"alphaMode":"MASK","alphaCutoff":0.05,"doubleSided":true}],"textures":[{"sampler":0,"source":0}],"samplers":[{"magFilter":9728,"minFilter":9728,"wrapS":33071,"wrapT":33071}],"images":[{"mimeType":"image/png","uri":"data:image/png;base64,"}],"meshes":[{"primitives":[{"mode":4,"attributes":{"POSITION":0,"NORMAL":1,"TEXCOORD_0":2},"indices":3,"material":0}]},{"primitives":[{"mode":4,"attributes":{"POSITION":4,"NORMAL":5,"TEXCOORD_0":6},"indices":7,"material":0}]},{"primitives":[{"mode":4,"attributes":{"POSITION":8,"NORMAL":9,"TEXCOORD_0":10},"indices":11,"material":0}]},{"primitives":[{"mode":4,"attributes":{"POSITION":12,"NORMAL":13,"TEXCOORD_0":14},"indices":15,"material":0}]},{"primitives":[{"mode":4,"attributes":{"POSITION":16,"NORMAL":17,"TEXCOORD_0":18},"indices":19,"material":0}]},{"primitives":[{"mode":4,"attributes":{"POSITION":20,"NORMAL":21,"TEXCOORD_0":22},"indices":23,"material":0}]},{"primitives":[{"mode":4,"attributes":{"POSITION":24,"NORMAL":25,"TEXCOORD_0":26},"indices":27,"material":0}]},{"primitives":[{"mode":4,"attributes":{"POSITION":28,"NORMAL":29,"TEXCOORD_0":30},"indices":31,"material":0}]},{"primitives":[{"mode":4,"attributes":{"POSITION":32,"NORMAL":33,"TEXCOORD_0":34},"indices":35,"material":0}]}]}