{"asset":{"version":"2.0","generator":"Blockbench 4.9.4 glTF exporter"},"scenes":[{"nodes":[19],"name":"blockbench_export"}],"scene":0,"nodes":[{"name":"Keyboard","mesh":0},{"name":"Base","mesh":1},{"rotation":[0.7071067811865475,0,0,0.7071067811865476],"translation":[-2.335204679199548e-17,0,-0.0034375],"name":"cylinder","mesh":2},{"rotation":[0.7071067811865475,0,0,0.7071067811865476],"translation":[-2.335204679199548e-17,0,-0.0034375],"name":"cylinder","mesh":3},{"name":"cube","mesh":4},{"name":"cube","mesh":5},{"name":"cube","mesh":6},{"name":"PC","children":[1,2,3,4,5,6]},{"name":"cylinder","mesh":7},{"name":"cube","mesh":8},{"name":"cube","mesh":9},{"name":"cube","mesh":10},{"name":"cube","mesh":11},{"name":"cube","mesh":12},{"name":"cube","mesh":13},{"name":"cuboid","mesh":14},{"rotation":[0.7071067811865475,0,0,0.7071067811865476],"translation":[-2.335204679199548e-17,0.25,-2.6688053476566264e-17],"name":"cylinder","mesh":15},{"rotation":[0.7071067811865475,0,0,0.7071067811865476],"translation":[-2.335204679199548e-17,0.25,-2.6688053476566264e-17],"name":"cylinder","mesh":16},{"name":"Monitor","children":[8,9,10,11,12,13,14,15,16,17]},{"children":[0,7,18]}],"bufferViews":[{"buffer":0,"byteOffset":0,"byteLength":288,"target":34962,"byteStride":12},{"buffer":0,"byteOffset":288,"byteLength":288,"target":34962,"byteStride":12},{"buffer":0,"byteOffset":576,"byteLength":192,"target":34962,"byteStride":8},{"buffer":0,"byteOffset":768,"byteLength":72,"target":34963},{"buffer":0,"byteOffset":840,"byteLength":288,"target":34962,"byteStride":12},{"buffer":0,"byteOffset":1128,"byteLength":288,"target":34962,"byteStride":12},{"buffer":0,"byteOffset":1416,"byteLength":192,"target":34962,"byteStride":8},{"buffer":0,"byteOffset":1608,"byteLength":72,"target":34963},{"buffer":0,"byteOffset":1680,"byteLength":1008,"target":34962,"byteStride":12},{"buffer":0,"byteOffset":2688,"byteLength":1008,"target":34962,"byteStride":12},{"buffer":0,"byteOffset":3696,"byteLength":672,"target":34962,"byteStride":8},{"buffer":0,"byteOffset":4368,"byteLength":216,"target":34963},{"buffer":0,"byteOffset":4584,"byteLength":1248,"target":34962,"byteStride":12},{"buffer":0,"byteOffset":5832,"byteLength":1248,"target":34962,"byteStride":12},{"buffer":0,"byteOffset":7080,"byteLength":832,"target":34962,"byteStride":8},{"buffer":0,"byteOffset":7912,"byteLength":276,"target":34963},{"buffer":0,"byteOffset":8188,"byteLength":288,"target":34962,"byteStride":12},{"buffer":0,"byteOffset":8476,"byteLength":288,"target":34962,"byteStride":12},{"buffer":0,"byteOffset":8764,"byteLength":192,"target":34962,"byteStride":8},{"buffer":0,"byteOffset":8956,"byteLength":72,"target":34963},{"buffer":0,"byteOffset":9028,"byteLength":288,"target":34962,"byteStride":12},{"buffer":0,"byteOffset":9316,"byteLength":288,"target":34962,"byteStride":12},{"buffer":0,"byteOffset":9604,"byteLength":192,"target":34962,"byteStride":8},{"buffer":0,"byteOffset":9796,"byteLength":72,"target":34963},{"buffer":0,"byteOffset":9868,"byteLength":288,"target":34962,"byteStride":12},{"buffer":0,"byteOffset":10156,"byteLength":288,"target":34962,"byteStride":12},{"buffer":0,"byteOffset":10444,"byteLength":192,"target":34962,"byteStride":8},{"buffer":0,"byteOffset":10636,"byteLength":72,"target":34963},{"buffer":0,"byteOffset":10708,"byteLength":1440,"target":34962,"byteStride":12},{"buffer":0,"byteOffset":12148,"byteLength":1440,"target":34962,"byteStride":12},{"buffer":0,"byteOffset":13588,"byteLength":960,"target":34962,"byteStride":8},{"buffer":0,"byteOffset":14548,"byteLength":288,"target":34963},{"buffer":0,"byteOffset":14836,"byteLength":288,"target":34962,"byteStride":12},{"buffer":0,"byteOffset":15124,"byteLength":288,"target":34962,"byteStride":12},{"buffer":0,"byteOffset":15412,"byteLength":192,"target":34962,"byteStride":8},{"buffer":0,"byteOffset":15604,"byteLength":72,"target":34963},{"buffer":0,"byteOffset":15676,"byteLength":288,"target":34962,"byteStride":12},{"buffer":0,"byteOffset":15964,"byteLength":288,"target":34962,"byteStride":12},{"buffer":0,"byteOffset":16252,"byteLength":192,"target":34962,"byteStride":8},{"buffer":0,"byteOffset":16444,"byteLength":72,"target":34963},{"buffer":0,"byteOffset":16516,"byteLength":288,"target":34962,"byteStride":12},{"buffer":0,"byteOffset":16804,"byteLength":288,"target":34962,"byteStride":12},{"buffer":0,"byteOffset":17092,"byteLength":192,"target":34962,"byteStride":8},{"buffer":0,"byteOffset":17284,"byteLength":72,"target":34963},{"buffer":0,"byteOffset":17356,"byteLength":288,"target":34962,"byteStride":12},{"buffer":0,"byteOffset":17644,"byteLength":288,"target":34962,"byteStride":12},{"buffer":0,"byteOffset":17932,"byteLength":192,"target":34962,"byteStride":8},{"buffer":0,"byteOffset":18124,"byteLength":72,"target":34963},{"buffer":0,"byteOffset":18196,"byteLength":288,"target":34962,"byteStride":12},{"buffer":0,"byteOffset":18484,"byteLength":288,"target":34962,"byteStride":12},{"buffer":0,"byteOffset":18772,"byteLength":192,"target":34962,"byteStride":8},{"buffer":0,"byteOffset":18964,"byteLength":72,"target":34963},{"buffer":0,"byteOffset":19036,"byteLength":288,"target":34962,"byteStride":12},{"buffer":0,"byteOffset":19324,"byteLength":288,"target":34962,"byteStride":12},{"buffer":0,"byteOffset":19612,"byteLength":192,"target":34962,"byteStride":8},{"buffer":0,"byteOffset":19804,"byteLength":72,"target":34963},{"buffer":0,"byteOffset":19876,"byteLength":288,"target":34962,"byteStride":12},{"buffer":0,"byteOffset":20164,"byteLength":288,"target":34962,"byteStride":12},{"buffer":0,"byteOffset":20452,"byteLength":192,"target":34962,"byteStride":8},{"buffer":0,"byteOffset":20644,"byteLength":72,"target":34963},{"buffer":0,"byteOffset":20716,"byteLength":1008,"target":34962,"byteStride":12},{"buffer":0,"byteOffset":21724,"byteLength":1008,"target":34962,"byteStride":12},{"buffer":0,"byteOffset":22732,"byteLength":672,"target":34962,"byteStride":8},{"buffer":0,"byteOffset":23404,"byteLength":216,"target":34963},{"buffer":0,"byteOffset":23620,"byteLength":1248,"target":34962,"byteStride":12},{"buffer":0,"byteOffset":24868,"byteLength":1248,"target":34962,"byteStride":12},{"buffer":0,"byteOffset":26116,"byteLength":832,"target":34962,"byteStride":8},{"buffer":0,"byteOffset":26948,"byteLength":276,"target":34963}],"buffers":[{"byteLength":27224,"uri":"data:application/octet-stream;base64,"}],"accessors":[{"bufferView":0,"componentType":5126,"count":24,"max":[0.375,0.03125,-0.0625],"min":[-0.0625,0,-0.1875],"type":"VEC3"},{"bufferView":1,"componentType":5126,"count":24,"max":[1,1,1],"min":[-1,-1,-1],"type":"VEC3"},{"bufferView":2,"componentType":5126,"count":24,"max":[0.5625,0.5625],"min":[0.15625,0],"type":"VEC2"},{"bufferView":3,"componentType":5123,"count":36,"max":[23],"min":[0],"type":"SCALAR"},{"bufferView":4,"componentType":5126,"count":24,"max":[0.375,0.1875,0.375],"min":[-0.3125,0,0],"type":"VEC3"},{"bufferView":5,"componentType":5126,"count":24,"max":[1,1,1],"min":[-1,-1,-1],"type":"VEC3"},{"bufferView":6,"componentType":5126,"count":24,"max":[0.390625,0.375],"min":[0,0],"type":"VEC2"},{"bufferView":7,"componentType":5123,"count":36,"max":[23],"min":[0],"type":"SCALAR"},{"bufferView":8,"componentType":5126,"count":84,"max":[-0.25,-0.05937499925494194,-0.125],"min":[-0.28125,-0.06562499701976776,-0.15625],"type":"VEC3"},{"bufferView":9,"componentType":5126,"count":84,"max":[1,1,1],"min":[-1,0,-1],"type":"VEC3"},{"bufferView":10,"componentType":5126,"count":84,"max":[0.57421875,0.5640624761581421],"min":[0.2702968716621399,0.171875],"type":"VEC2"},{"bufferView":11,"componentType":5123,"count":108,"max":[83],"min":[0],"type":"SCALAR"},{"bufferView":12,"componentType":5126,"count":104,"max":[-0.2562499940395355,-0.05937499925494194,-0.13124999403953552],"min":[-0.2750000059604645,-0.06562499701976776,-0.15000000596046448],"type":"VEC3"},{"bufferView":13,"componentType":5126,"count":104,"max":[1,1,1],"min":[-1,0,-1],"type":"VEC3"},{"bufferView":14,"componentType":5126,"count":104,"max":[0.587820291519165,0.578125],"min":[0.2094515562057495,0],"type":"VEC2"},{"bufferView":15,"componentType":5123,"count":138,"max":[103],"min":[0],"type":"SCALAR"},{"bufferView":16,"componentType":5126,"count":24,"max":[0.375,0.1875,0],"min":[-0.3125,0.08124999701976776,-0.0625],"type":"VEC3"},{"bufferView":17,"componentType":5126,"count":24,"max":[1,1,1],"min":[-1,-1,-1],"type":"VEC3"},{"bufferView":18,"componentType":5126,"count":24,"max":[0.578125,0.578125],"min":[0,0.140625],"type":"VEC2"},{"bufferView":19,"componentType":5123,"count":36,"max":[23],"min":[0],"type":"SCALAR"},{"bufferView":20,"componentType":5126,"count":24,"max":[0.375,0.08124999701976776,0],"min":[-0.0625,0,-0.0625],"type":"VEC3"},{"bufferView":21,"componentType":5126,"count":24,"max":[1,1,1],"min":[-1,-1,-1],"type":"VEC3"},{"bufferView":22,"componentType":5126,"count":24,"max":[0.5625,0.578125],"min":[0.0625,0.296875],"type":"VEC2"},{"bufferView":23,"componentType":5123,"count":36,"max":[23],"min":[0],"type":"SCALAR"},{"bufferView":24,"componentType":5126,"count":24,"max":[-0.09375,0.05000000074505806,0],"min":[-0.265625,0.03125,-0.015625],"type":"VEC3"},{"bufferView":25,"componentType":5126,"count":24,"max":[1,1,1],"min":[-1,-1,-1],"type":"VEC3"},{"bufferView":26,"componentType":5126,"count":24,"max":[0.5625,0.578125],"min":[0,0.09375],"type":"VEC2"},{"bufferView":27,"componentType":5123,"count":36,"max":[23],"min":[0],"type":"SCALAR"},{"bufferView":28,"componentType":5126,"count":120,"max":[0.21875,0.21875,0.34375],"min":[-0.15625,0.1875,-0.03125],"type":"VEC3"},{"bufferView":29,"componentType":5126,"count":120,"max":[1,1,1],"min":[-1,-1,-1],"type":"VEC3"},{"bufferView":30,"componentType":5126,"count":120,"max":[0.6236171722412109,0.5390625],"min":[0.06388281285762787,0],"type":"VEC2"},{"bufferView":31,"componentType":5123,"count":144,"max":[119],"min":[0],"type":"SCALAR"},{"bufferView":32,"componentType":5126,"count":24,"max":[0.125,0.265625,0.3125],"min":[-0.0625,0.21875,-0.015625],"type":"VEC3"},{"bufferView":33,"componentType":5126,"count":24,"max":[1,1,1],"min":[-1,-1,-1],"type":"VEC3"},{"bufferView":34,"componentType":5126,"count":24,"max":[0.546875,0.46875],"min":[0.171875,0],"type":"VEC2"},{"bufferView":35,"componentType":5123,"count":36,"max":[23],"min":[0],"type":"SCALAR"},{"bufferView":36,"componentType":5126,"count":24,"max":[0.1875,0.515625,0.3125],"min":[-0.125,0.265625,0.0625],"type":"VEC3"},{"bufferView":37,"componentType":5126,"count":24,"max":[1,1,1],"min":[-1,-1,-1],"type":"VEC3"},{"bufferView":38,"componentType":5126,"count":24,"max":[0.4375,0.390625],"min":[0,0],"type":"VEC2"},{"bufferView":39,"componentType":5123,"count":36,"max":[23],"min":[0],"type":"SCALAR"},{"bufferView":40,"componentType":5126,"count":24,"max":[0.1875,0.515625,0.0625],"min":[0.15625,0.265625,0.046875],"type":"VEC3"},{"bufferView":41,"componentType":5126,"count":24,"max":[1,1,1],"min":[-1,-1,-1],"type":"VEC3"},{"bufferView":42,"componentType":5126,"count":24,"max":[0.46875,0.5625],"min":[0.265625,0.21875],"type":"VEC2"},{"bufferView":43,"componentType":5123,"count":36,"max":[23],"min":[0],"type":"SCALAR"},{"bufferView":44,"componentType":5126,"count":24,"max":[-0.09375,0.515625,0.0625],"min":[-0.125,0.265625,0.046875],"type":"VEC3"},{"bufferView":45,"componentType":5126,"count":24,"max":[1,1,1],"min":[-1,-1,-1],"type":"VEC3"},{"bufferView":46,"componentType":5126,"count":24,"max":[0.484375,0.5625],"min":[0.359375,0.4375],"type":"VEC2"},{"bufferView":47,"componentType":5123,"count":36,"max":[23],"min":[0],"type":"SCALAR"},{"bufferView":48,"componentType":5126,"count":24,"max":[0.15625,0.296875,0.0625],"min":[-0.09375,0.265625,0.046875],"type":"VEC3"},{"bufferView":49,"componentType":5126,"count":24,"max":[1,1,1],"min":[-1,-1,-1],"type":"VEC3"},{"bufferView":50,"componentType":5126,"count":24,"max":[0.546875,0.5625],"min":[0,0.171875],"type":"VEC2"},{"bufferView":51,"componentType":5123,"count":36,"max":[23],"min":[0],"type":"SCALAR"},{"bufferView":52,"componentType":5126,"count":24,"max":[0.15625,0.515625,0.0625],"min":[-0.09375,0.484375,0.046875],"type":"VEC3"},{"bufferView":53,"componentType":5126,"count":24,"max":[1,1,1],"min":[-1,-1,-1],"type":"VEC3"},{"bufferView":54,"componentType":5126,"count":24,"max":[0.5625,0.5625],"min":[0.078125,0.234375],"type":"VEC2"},{"bufferView":55,"componentType":5123,"count":36,"max":[23],"min":[0],"type":"SCALAR"},{"bufferView":56,"componentType":5126,"count":24,"max":[0.15625,0.5,0.4375],"min":[-0.09375,0.3125,0.3125],"type":"VEC3"},{"bufferView":57,"componentType":5126,"count":24,"max":[1,0.8944271802902222,1],"min":[-1,-1,-1],"type":"VEC3"},{"bufferView":58,"componentType":5126,"count":24,"max":[0.46875,0.484375],"min":[0,0.171875],"type":"VEC2"},{"bufferView":59,"componentType":5123,"count":36,"max":[23],"min":[0],"type":"SCALAR"},{"bufferView":60,"componentType":5126,"count":84,"max":[-0.04062499850988388,-0.01875000074505806,0.0062500000931322575],"min":[-0.05312500149011612,-0.02500000037252903,-0.0062500000931322575],"type":"VEC3"},{"bufferView":61,"componentType":5126,"count":84,"max":[1,1,1],"min":[-1,0,-1],"type":"VEC3"},{"bufferView":62,"componentType":5126,"count":84,"max":[0.5871937274932861,0.5796874761581421],"min":[0.16280624270439148,0.03125],"type":"VEC2"},{"bufferView":63,"componentType":5123,"count":108,"max":[83],"min":[0],"type":"SCALAR"},{"bufferView":64,"componentType":5126,"count":104,"max":[-0.04374999925494194,-0.01875000074505806,0.0031250000465661287],"min":[-0.05000000074505806,-0.02500000037252903,-0.0031250000465661287],"type":"VEC3"},{"bufferView":65,"componentType":5126,"count":104,"max":[1,1,1],"min":[-1,0,-1],"type":"VEC3"},{"bufferView":66,"componentType":5126,"count":104,"max":[0.5865656137466431,0.5796874761581421],"min":[0.33515626192092896,0.234375],"type":"VEC2"},{"bufferView":67,"componentType":5123,"count":138,"max":[103],"min":[0],"type":"SCALAR"}],"materials":[{"pbrMetallicRoughness":{"metallicFactor":0,"roughnessFactor":1,"baseColorTexture":{"index":0}},"alphaMode":"MASK","alphaCutoff":0.05,"doubleSided":true}],"textures":[{"sampler":0,"source":0}],"samplers":[{"magFilter":9728,"minFilter":9728,"wrapS":33071,"wrapT":33071}],"images":[{"mimeType":"image/png","uri":"data:image/png;base64,"}],"meshes":[{"primitives":[{"mode":4,"attributes":{"POSITION":0,"NORMAL":1,"TEXCOORD_0":2},"indices":3,"material":0}]},{"primitives":[{"mode":4,"attributes":{"POSITION":4,"NORMAL":5,"TEXCOORD_0":6},"indices":7,"material":0}]},{"primitives":[{"mode":4,"attributes":{"POSITION":8,"NORMAL":9,"TEXCOORD_0":10},"indices":11,"material":0}]},{"primitives":[{"mode":4,"attributes":{"POSITION":12,"NORMAL":13,"TEXCOORD_0":14},"indices":15,"material":0}]},{"primitives":[{"mode":4,"attributes":{"POSITION":16,"NORMAL":17,"TEXCOORD_0":18},"indices":19,"material":0}]},{"primitives":[{"mode":4,"attributes":{"POSITION":20,"NORMAL":21,"TEXCOORD_0":22},"indices":23,"material":0}]},{"primitives":[{"mode":4,"attributes":{"POSITION":24,"NORMAL":25,"TEXCOORD_0":26},"indices":27,"material":0}]},{"primitives":[{"mode":4,"attributes":{"POSITION":28,"NORMAL":29,"TEXCOORD_0":30},"indices":31,"material":0}]},{"primitives":[{"mode":4,"attributes":{"POSITION":32,"NORMAL":33,"TEXCOORD_0":34},"indices":35,"material":0}]},{"primitives":[{"mode":4,"attributes":{"POSITION":36,"NORMAL":37,"TEXCOORD_0":38},"indices":39,"material":0}]},{"primitives":[{"mode":4,"attributes":{"POSITION":40,"NORMAL":41,"TEXCOORD_0":42},"indices":43,"material":0}]},{"primitives":[{"mode":4,"attributes":{"POSITION":44,"NORMAL":45,"TEXCOORD_0":46},"indices":47,"material":0}]},{"primitives":[{"mode":4,"attributes":{"POSITION":48,"NORMAL":49,"TEXCOORD_0":50},"indices":51,"material":0}]},{"primitives":[{"mode":4,"attributes":{"POSITION":52,"NORMAL":53,"TEXCOORD_0":54},"indices":55,"material":0}]},{"primitives":[{"mode":4,"attributes":{"POSITION":56,"NORMAL":57,"TEXCOORD_0":58},"indices":59,"material":0}]},{"primitives":[{"mode":4,"attributes":{"POSITION":60,"NORMAL":61,"TEXCOORD_0":62},"indices":63,"material":0}]},{"primitives":[{"mode":4,"attributes":{"POSITION":64,"NORMAL":65,"TEXCOORD_0":66},"indices":67,"material":0}]}]}