{"asset":{"version":"2.0","generator":"Blockbench 4.9.4 glTF exporter"},"scenes":[{"nodes":[5],"name":"blockbench_export"}],"scene":0,"nodes":[{"rotation":[0.7071067811865475,0,0,0.7071067811865476],"name":"plane","mesh":0},{"rotation":[0,0,0.7071067811865475,0.7071067811865476],"name":"cylinder","mesh":1},{"name":"cube","mesh":2},{"name":"cube","mesh":3},{"name":"screen","children":[0,1,2,3]},{"children":[4]}],"bufferViews":[{"buffer":0,"byteOffset":0,"byteLength":336,"target":34962,"byteStride":12},{"buffer":0,"byteOffset":336,"byteLength":336,"target":34962,"byteStride":12},{"buffer":0,"byteOffset":672,"byteLength":224,"target":34962,"byteStride":8},{"buffer":0,"byteOffset":896,"byteLength":84,"target":34963},{"buffer":0,"byteOffset":980,"byteLength":1440,"target":34962,"byteStride":12},{"buffer":0,"byteOffset":2420,"byteLength":1440,"target":34962,"byteStride":12},{"buffer":0,"byteOffset":3860,"byteLength":960,"target":34962,"byteStride":8},{"buffer":0,"byteOffset":4820,"byteLength":288,"target":34963},{"buffer":0,"byteOffset":5108,"byteLength":288,"target":34962,"byteStride":12},{"buffer":0,"byteOffset":5396,"byteLength":288,"target":34962,"byteStride":12},{"buffer":0,"byteOffset":5684,"byteLength":192,"target":34962,"byteStride":8},{"buffer":0,"byteOffset":5876,"byteLength":72,"target":34963},{"buffer":0,"byteOffset":5948,"byteLength":288,"target":34962,"byteStride":12},{"buffer":0,"byteOffset":6236,"byteLength":288,"target":34962,"byteStride":12},{"buffer":0,"byteOffset":6524,"byteLength":192,"target":34962,"byteStride":8},{"buffer":0,"byteOffset":6716,"byteLength":72,"target":34963}],"buffers":[{"byteLength":6788,"uri":"data:application/octet-stream;base64,"}],"accessors":[{"bufferView":0,"componentType":5126,"count":28,"max":[1.5,0.125,-0.125],"min":[-1.5,-0.125,-1.625],"type":"VEC3"},{"bufferView":1,"componentType":5126,"count":28,"max":[0.5038710236549377,0.9599999785423279,0],"min":[-0.5038710236549377,0.8637788891792297,0],"type":"VEC3"},{"bufferView":2,"componentType":5126,"count":28,"max":[0.3828125,0.2578125],"min":[0,0],"type":"VEC2"},{"bufferView":3,"componentType":5123,"count":42,"max":[27],"min":[0],"type":"SCALAR"},{"bufferView":4,"componentType":5126,"count":120,"max":[1.75,1.5,0.0625],"min":[1.625,-1.5,-0.0625],"type":"VEC3"},{"bufferView":5,"componentType":5126,"count":120,"max":[1,1,1],"min":[-1,-1,-1],"type":"VEC3"},{"bufferView":6,"componentType":5126,"count":120,"max":[0.296875,0.5859375],"min":[0.0005562499864026904,0.2109375],"type":"VEC2"},{"bufferView":7,"componentType":5123,"count":144,"max":[119],"min":[0],"type":"SCALAR"},{"bufferView":8,"componentType":5126,"count":24,"max":[1.625,1.75,0.0625],"min":[1.5,0,-0.0625],"type":"VEC3"},{"bufferView":9,"componentType":5126,"count":24,"max":[1,1,1],"min":[-1,-1,-1],"type":"VEC3"},{"bufferView":10,"componentType":5126,"count":24,"max":[0.3203125,0.4296875],"min":[0.09375,0.2109375],"type":"VEC2"},{"bufferView":11,"componentType":5123,"count":36,"max":[23],"min":[0],"type":"SCALAR"},{"bufferView":12,"componentType":5126,"count":24,"max":[-1.5,1.75,0.0625],"min":[-1.625,0,-0.0625],"type":"VEC3"},{"bufferView":13,"componentType":5126,"count":24,"max":[1,1,1],"min":[-1,-1,-1],"type":"VEC3"},{"bufferView":14,"componentType":5126,"count":24,"max":[0.3203125,0.484375],"min":[0.1875,0.265625],"type":"VEC2"},{"bufferView":15,"componentType":5123,"count":36,"max":[23],"min":[0],"type":"SCALAR"}],"materials":[{"pbrMetallicRoughness":{"metallicFactor":0,"roughnessFactor":1,"baseColorTexture":{"index":0}},"alphaMode":"MASK","alphaCutoff":0.05,"doubleSided":true}],"textures":[{"sampler":0,"source":0}],"samplers":[{"magFilter":9728,"minFilter":9728,"wrapS":33071,"wrapT":33071}],"images":[{"mimeType":"image/png","uri":"data:image/png;base64,"}],"meshes":[{"primitives":[{"mode":4,"attributes":{"POSITION":0,"NORMAL":1,"TEXCOORD_0":2},"indices":3,"material":0}]},{"primitives":[{"mode":4,"attributes":{"POSITION":4,"NORMAL":5,"TEXCOORD_0":6},"indices":7,"material":0}]},{"primitives":[{"mode":4,"attributes":{"POSITION":8,"NORMAL":9,"TEXCOORD_0":10},"indices":11,"material":0}]},{"primitives":[{"mode":4,"attributes":{"POSITION":12,"NORMAL":13,"TEXCOORD_0":14},"indices":15,"material":0}]}]}