{"asset":{"version":"2.0","generator":"Blockbench 4.9.4 glTF exporter"},"scenes":[{"nodes":[7],"name":"blockbench_export"}],"scene":0,"nodes":[{"rotation":[0,0,0.7071067811865475,0.7071067811865476],"translation":[3.416070845000482e-17,0.5,0.9999999999999999],"name":"cylinder","mesh":0},{"rotation":[0,0,0.7071067811865475,0.7071067811865476],"name":"cylinder","mesh":1},{"rotation":[0,0,0.7071067811865475,0.7071067811865476],"name":"cylinder","mesh":2},{"name":"cuboid","mesh":3},{"name":"cuboid","mesh":4},{"name":"cuboid","mesh":5},{"name":"EncasedBed","children":[0,1,2,3,4,5]},{"children":[6]}],"bufferViews":[{"buffer":0,"byteOffset":0,"byteLength":1296,"target":34962,"byteStride":12},{"buffer":0,"byteOffset":1296,"byteLength":1296,"target":34962,"byteStride":12},{"buffer":0,"byteOffset":2592,"byteLength":864,"target":34962,"byteStride":8},{"buffer":0,"byteOffset":3456,"byteLength":288,"target":34963},{"buffer":0,"byteOffset":3744,"byteLength":1440,"target":34962,"byteStride":12},{"buffer":0,"byteOffset":5184,"byteLength":1440,"target":34962,"byteStride":12},{"buffer":0,"byteOffset":6624,"byteLength":960,"target":34962,"byteStride":8},{"buffer":0,"byteOffset":7584,"byteLength":288,"target":34963},{"buffer":0,"byteOffset":7872,"byteLength":1440,"target":34962,"byteStride":12},{"buffer":0,"byteOffset":9312,"byteLength":1440,"target":34962,"byteStride":12},{"buffer":0,"byteOffset":10752,"byteLength":960,"target":34962,"byteStride":8},{"buffer":0,"byteOffset":11712,"byteLength":288,"target":34963},{"buffer":0,"byteOffset":12000,"byteLength":288,"target":34962,"byteStride":12},{"buffer":0,"byteOffset":12288,"byteLength":288,"target":34962,"byteStride":12},{"buffer":0,"byteOffset":12576,"byteLength":192,"target":34962,"byteStride":8},{"buffer":0,"byteOffset":12768,"byteLength":72,"target":34963},{"buffer":0,"byteOffset":12840,"byteLength":864,"target":34962,"byteStride":12},{"buffer":0,"byteOffset":13704,"byteLength":864,"target":34962,"byteStride":12},{"buffer":0,"byteOffset":14568,"byteLength":576,"target":34962,"byteStride":8},{"buffer":0,"byteOffset":15144,"byteLength":216,"target":34963},{"buffer":0,"byteOffset":15360,"byteLength":1248,"target":34962,"byteStride":12},{"buffer":0,"byteOffset":16608,"byteLength":1248,"target":34962,"byteStride":12},{"buffer":0,"byteOffset":17856,"byteLength":832,"target":34962,"byteStride":8},{"buffer":0,"byteOffset":18688,"byteLength":312,"target":34963}],"buffers":[{"byteLength":19000,"uri":"data:application/octet-stream;base64,"}],"accessors":[{"bufferView":0,"componentType":5126,"count":108,"max":[0.1339745968580246,1.125,0.5],"min":[-0.5,-1.125,-0.5],"type":"VEC3"},{"bufferView":1,"componentType":5126,"count":108,"max":[0.9659258127212524,1,0.8660253882408142],"min":[-1,-1,-1],"type":"VEC3"},{"bufferView":2,"componentType":5126,"count":108,"max":[0.5640375018119812,0.9453125],"min":[0,0.1328125],"type":"VEC2"},{"bufferView":3,"componentType":5123,"count":144,"max":[107],"min":[0],"type":"SCALAR"},{"bufferView":4,"componentType":5126,"count":120,"max":[1,-1.25,0.5],"min":[0,-1.5,-0.5],"type":"VEC3"},{"bufferView":5,"componentType":5126,"count":120,"max":[1,1,1],"min":[-1,-1,-1],"type":"VEC3"},{"bufferView":6,"componentType":5126,"count":120,"max":[0.7338343858718872,0.65625],"min":[0.5,0],"type":"VEC2"},{"bufferView":7,"componentType":5123,"count":144,"max":[119],"min":[0],"type":"SCALAR"},{"bufferView":8,"componentType":5126,"count":120,"max":[1,1.5,0.5],"min":[0,1.25,-0.5],"type":"VEC3"},{"bufferView":9,"componentType":5126,"count":120,"max":[1,1,1],"min":[-1,-1,-1],"type":"VEC3"},{"bufferView":10,"componentType":5126,"count":120,"max":[0.7338343858718872,0.65625],"min":[0.148978129029274,0.0390625],"type":"VEC2"},{"bufferView":11,"componentType":5123,"count":144,"max":[119],"min":[0],"type":"SCALAR"},{"bufferView":12,"componentType":5126,"count":24,"max":[1.25,0.625,0.5],"min":[-1.25,0.375,-0.5],"type":"VEC3"},{"bufferView":13,"componentType":5126,"count":24,"max":[1,1,1],"min":[-1,-1,-1],"type":"VEC3"},{"bufferView":14,"componentType":5126,"count":24,"max":[0.875,0.6171875],"min":[0,0],"type":"VEC2"},{"bufferView":15,"componentType":5123,"count":36,"max":[23],"min":[0],"type":"SCALAR"},{"bufferView":16,"componentType":5126,"count":72,"max":[1.125,0.875,0.4375],"min":[0.625,0.75,-0.4375],"type":"VEC3"},{"bufferView":17,"componentType":5126,"count":72,"max":[1,1,1],"min":[-1,-1,-1],"type":"VEC3"},{"bufferView":18,"componentType":5126,"count":72,"max":[0.7265625,0.6796875],"min":[0.078125,0.1328125],"type":"VEC2"},{"bufferView":19,"componentType":5123,"count":108,"max":[71],"min":[0],"type":"SCALAR"},{"bufferView":20,"componentType":5126,"count":104,"max":[1.21875,0.75,0.484375],"min":[-1.21875,0.625,-0.484375],"type":"VEC3"},{"bufferView":21,"componentType":5126,"count":104,"max":[1,1,0.9701424837112427],"min":[-1,-1,-0.9701424837112427],"type":"VEC3"},{"bufferView":22,"componentType":5126,"count":104,"max":[0.9073843955993652,0.5390625],"min":[0.078125,0],"type":"VEC2"},{"bufferView":23,"componentType":5123,"count":156,"max":[103],"min":[0],"type":"SCALAR"}],"materials":[{"pbrMetallicRoughness":{"metallicFactor":0,"roughnessFactor":1,"baseColorTexture":{"index":0}},"alphaMode":"MASK","alphaCutoff":0.05,"doubleSided":true}],"textures":[{"sampler":0,"source":0}],"samplers":[{"magFilter":9728,"minFilter":9728,"wrapS":33071,"wrapT":33071}],"images":[{"mimeType":"image/png","uri":"data:image/png;base64,"}],"meshes":[{"primitives":[{"mode":4,"attributes":{"POSITION":0,"NORMAL":1,"TEXCOORD_0":2},"indices":3,"material":0}]},{"primitives":[{"mode":4,"attributes":{"POSITION":4,"NORMAL":5,"TEXCOORD_0":6},"indices":7,"material":0}]},{"primitives":[{"mode":4,"attributes":{"POSITION":8,"NORMAL":9,"TEXCOORD_0":10},"indices":11,"material":0}]},{"primitives":[{"mode":4,"attributes":{"POSITION":12,"NORMAL":13,"TEXCOORD_0":14},"indices":15,"material":0}]},{"primitives":[{"mode":4,"attributes":{"POSITION":16,"NORMAL":17,"TEXCOORD_0":18},"indices":19,"material":0}]},{"primitives":[{"mode":4,"attributes":{"POSITION":20,"NORMAL":21,"TEXCOORD_0":22},"indices":23,"material":0}]}]}