{"asset":{"version":"2.0","generator":"Blockbench 4.9.4 glTF exporter"},"scenes":[{"nodes":[29],"name":"blockbench_export"}],"scene":0,"nodes":[{"name":"cube","mesh":0},{"name":"cube","mesh":1},{"name":"cube","mesh":2},{"name":"BottomHandle","children":[0,1,2]},{"name":"cube","mesh":3},{"name":"cube","mesh":4},{"name":"cube","mesh":5},{"name":"cube","mesh":6},{"name":"cube","mesh":7},{"name":"cube","mesh":8},{"name":"cube","mesh":9},{"rotation":[-0.5,0.4999999999999999,0.5,0.5000000000000001],"translation":[-0.3125,0.8125,0.31249999999999956],"name":"cylinder","mesh":10},{"rotation":[-0.5,0.4999999999999999,0.5,0.5000000000000001],"translation":[-0.3125,0.8125,0.31249999999999956],"name":"cylinder","mesh":11},{"name":"Bottom","children":[3,4,5,6,7,8,9,10,11,12]},{"translation":[0,-0.7630208333333333,0.234375],"name":"cube","mesh":12},{"translation":[0,-0.7630208333333333,0.234375],"name":"cube","mesh":13},{"translation":[0,-0.7630208333333333,0.234375],"name":"cube","mesh":14},{"rotation":[-0.5,-0.4999999999999999,0.5,0.5000000000000001],"translation":[-0.3125,1.7630208333333333,-0.453125],"name":"TopHandle","children":[14,15,16]},{"name":"cube","mesh":15},{"rotation":[-0.7071067811865475,0,0,0.7071067811865476],"translation":[3.416070845000482e-17,1.6875,-1.0625000000000002],"name":"cylinder","mesh":16},{"name":"cube","mesh":17},{"name":"cube","mesh":18},{"name":"cube","mesh":19},{"name":"cube","mesh":20},{"name":"cube","mesh":21},{"rotation":[-5.551115123125783e-17,0.7071067811865475,5.551115123125783e-17,0.7071067811865475],"translation":[0.3750000000000002,1.6875000000000002,-0.4531250000000001],"name":"cylinder","mesh":22},{"rotation":[-5.551115123125783e-17,0.7071067811865475,5.551115123125783e-17,0.7071067811865475],"translation":[0.3750000000000002,1.6875000000000002,-0.4531250000000001],"name":"cylinder","mesh":23},{"rotation":[-0.7071067811865475,0,0,0.7071067811865476],"translation":[3.416070845000482e-17,1.6875,-1.0625000000000002],"name":"cylinder","mesh":24},{"name":"Top","children":[17,18,19,20,21,22,23,24,25,26,27]},{"children":[13,28]}],"bufferViews":[{"buffer":0,"byteOffset":0,"byteLength":288,"target":34962,"byteStride":12},{"buffer":0,"byteOffset":288,"byteLength":288,"target":34962,"byteStride":12},{"buffer":0,"byteOffset":576,"byteLength":192,"target":34962,"byteStride":8},{"buffer":0,"byteOffset":768,"byteLength":72,"target":34963},{"buffer":0,"byteOffset":840,"byteLength":288,"target":34962,"byteStride":12},{"buffer":0,"byteOffset":1128,"byteLength":288,"target":34962,"byteStride":12},{"buffer":0,"byteOffset":1416,"byteLength":192,"target":34962,"byteStride":8},{"buffer":0,"byteOffset":1608,"byteLength":72,"target":34963},{"buffer":0,"byteOffset":1680,"byteLength":288,"target":34962,"byteStride":12},{"buffer":0,"byteOffset":1968,"byteLength":288,"target":34962,"byteStride":12},{"buffer":0,"byteOffset":2256,"byteLength":192,"target":34962,"byteStride":8},{"buffer":0,"byteOffset":2448,"byteLength":72,"target":34963},{"buffer":0,"byteOffset":2520,"byteLength":288,"target":34962,"byteStride":12},{"buffer":0,"byteOffset":2808,"byteLength":288,"target":34962,"byteStride":12},{"buffer":0,"byteOffset":3096,"byteLength":192,"target":34962,"byteStride":8},{"buffer":0,"byteOffset":3288,"byteLength":72,"target":34963},{"buffer":0,"byteOffset":3360,"byteLength":288,"target":34962,"byteStride":12},{"buffer":0,"byteOffset":3648,"byteLength":288,"target":34962,"byteStride":12},{"buffer":0,"byteOffset":3936,"byteLength":192,"target":34962,"byteStride":8},{"buffer":0,"byteOffset":4128,"byteLength":72,"target":34963},{"buffer":0,"byteOffset":4200,"byteLength":288,"target":34962,"byteStride":12},{"buffer":0,"byteOffset":4488,"byteLength":288,"target":34962,"byteStride":12},{"buffer":0,"byteOffset":4776,"byteLength":192,"target":34962,"byteStride":8},{"buffer":0,"byteOffset":4968,"byteLength":72,"target":34963},{"buffer":0,"byteOffset":5040,"byteLength":288,"target":34962,"byteStride":12},{"buffer":0,"byteOffset":5328,"byteLength":288,"target":34962,"byteStride":12},{"buffer":0,"byteOffset":5616,"byteLength":192,"target":34962,"byteStride":8},{"buffer":0,"byteOffset":5808,"byteLength":72,"target":34963},{"buffer":0,"byteOffset":5880,"byteLength":288,"target":34962,"byteStride":12},{"buffer":0,"byteOffset":6168,"byteLength":288,"target":34962,"byteStride":12},{"buffer":0,"byteOffset":6456,"byteLength":192,"target":34962,"byteStride":8},{"buffer":0,"byteOffset":6648,"byteLength":72,"target":34963},{"buffer":0,"byteOffset":6720,"byteLength":288,"target":34962,"byteStride":12},{"buffer":0,"byteOffset":7008,"byteLength":288,"target":34962,"byteStride":12},{"buffer":0,"byteOffset":7296,"byteLength":192,"target":34962,"byteStride":8},{"buffer":0,"byteOffset":7488,"byteLength":72,"target":34963},{"buffer":0,"byteOffset":7560,"byteLength":288,"target":34962,"byteStride":12},{"buffer":0,"byteOffset":7848,"byteLength":288,"target":34962,"byteStride":12},{"buffer":0,"byteOffset":8136,"byteLength":192,"target":34962,"byteStride":8},{"buffer":0,"byteOffset":8328,"byteLength":72,"target":34963},{"buffer":0,"byteOffset":8400,"byteLength":1440,"target":34962,"byteStride":12},{"buffer":0,"byteOffset":9840,"byteLength":1440,"target":34962,"byteStride":12},{"buffer":0,"byteOffset":11280,"byteLength":960,"target":34962,"byteStride":8},{"buffer":0,"byteOffset":12240,"byteLength":288,"target":34963},{"buffer":0,"byteOffset":12528,"byteLength":1440,"target":34962,"byteStride":12},{"buffer":0,"byteOffset":13968,"byteLength":1440,"target":34962,"byteStride":12},{"buffer":0,"byteOffset":15408,"byteLength":960,"target":34962,"byteStride":8},{"buffer":0,"byteOffset":16368,"byteLength":288,"target":34963},{"buffer":0,"byteOffset":16656,"byteLength":288,"target":34962,"byteStride":12},{"buffer":0,"byteOffset":16944,"byteLength":288,"target":34962,"byteStride":12},{"buffer":0,"byteOffset":17232,"byteLength":192,"target":34962,"byteStride":8},{"buffer":0,"byteOffset":17424,"byteLength":72,"target":34963},{"buffer":0,"byteOffset":17496,"byteLength":288,"target":34962,"byteStride":12},{"buffer":0,"byteOffset":17784,"byteLength":288,"target":34962,"byteStride":12},{"buffer":0,"byteOffset":18072,"byteLength":192,"target":34962,"byteStride":8},{"buffer":0,"byteOffset":18264,"byteLength":72,"target":34963},{"buffer":0,"byteOffset":18336,"byteLength":288,"target":34962,"byteStride":12},{"buffer":0,"byteOffset":18624,"byteLength":288,"target":34962,"byteStride":12},{"buffer":0,"byteOffset":18912,"byteLength":192,"target":34962,"byteStride":8},{"buffer":0,"byteOffset":19104,"byteLength":72,"target":34963},{"buffer":0,"byteOffset":19176,"byteLength":288,"target":34962,"byteStride":12},{"buffer":0,"byteOffset":19464,"byteLength":288,"target":34962,"byteStride":12},{"buffer":0,"byteOffset":19752,"byteLength":192,"target":34962,"byteStride":8},{"buffer":0,"byteOffset":19944,"byteLength":72,"target":34963},{"buffer":0,"byteOffset":20016,"byteLength":1440,"target":34962,"byteStride":12},{"buffer":0,"byteOffset":21456,"byteLength":1440,"target":34962,"byteStride":12},{"buffer":0,"byteOffset":22896,"byteLength":960,"target":34962,"byteStride":8},{"buffer":0,"byteOffset":23856,"byteLength":288,"target":34963},{"buffer":0,"byteOffset":24144,"byteLength":288,"target":34962,"byteStride":12},{"buffer":0,"byteOffset":24432,"byteLength":288,"target":34962,"byteStride":12},{"buffer":0,"byteOffset":24720,"byteLength":192,"target":34962,"byteStride":8},{"buffer":0,"byteOffset":24912,"byteLength":72,"target":34963},{"buffer":0,"byteOffset":24984,"byteLength":288,"target":34962,"byteStride":12},{"buffer":0,"byteOffset":25272,"byteLength":288,"target":34962,"byteStride":12},{"buffer":0,"byteOffset":25560,"byteLength":192,"target":34962,"byteStride":8},{"buffer":0,"byteOffset":25752,"byteLength":72,"target":34963},{"buffer":0,"byteOffset":25824,"byteLength":288,"target":34962,"byteStride":12},{"buffer":0,"byteOffset":26112,"byteLength":288,"target":34962,"byteStride":12},{"buffer":0,"byteOffset":26400,"byteLength":192,"target":34962,"byteStride":8},{"buffer":0,"byteOffset":26592,"byteLength":72,"target":34963},{"buffer":0,"byteOffset":26664,"byteLength":288,"target":34962,"byteStride":12},{"buffer":0,"byteOffset":26952,"byteLength":288,"target":34962,"byteStride":12},{"buffer":0,"byteOffset":27240,"byteLength":192,"target":34962,"byteStride":8},{"buffer":0,"byteOffset":27432,"byteLength":72,"target":34963},{"buffer":0,"byteOffset":27504,"byteLength":288,"target":34962,"byteStride":12},{"buffer":0,"byteOffset":27792,"byteLength":288,"target":34962,"byteStride":12},{"buffer":0,"byteOffset":28080,"byteLength":192,"target":34962,"byteStride":8},{"buffer":0,"byteOffset":28272,"byteLength":72,"target":34963},{"buffer":0,"byteOffset":28344,"byteLength":1440,"target":34962,"byteStride":12},{"buffer":0,"byteOffset":29784,"byteLength":1440,"target":34962,"byteStride":12},{"buffer":0,"byteOffset":31224,"byteLength":960,"target":34962,"byteStride":8},{"buffer":0,"byteOffset":32184,"byteLength":288,"target":34963},{"buffer":0,"byteOffset":32472,"byteLength":1440,"target":34962,"byteStride":12},{"buffer":0,"byteOffset":33912,"byteLength":1440,"target":34962,"byteStride":12},{"buffer":0,"byteOffset":35352,"byteLength":960,"target":34962,"byteStride":8},{"buffer":0,"byteOffset":36312,"byteLength":288,"target":34963},{"buffer":0,"byteOffset":36600,"byteLength":1440,"target":34962,"byteStride":12},{"buffer":0,"byteOffset":38040,"byteLength":1440,"target":34962,"byteStride":12},{"buffer":0,"byteOffset":39480,"byteLength":960,"target":34962,"byteStride":8},{"buffer":0,"byteOffset":40440,"byteLength":288,"target":34963}],"buffers":[{"byteLength":40728,"uri":"data:application/octet-stream;base64,"}],"accessors":[{"bufferView":0,"componentType":5126,"count":24,"max":[0.078125,0.765625,-0.21875],"min":[0.046875,0.75,-0.25],"type":"VEC3"},{"bufferView":1,"componentType":5126,"count":24,"max":[1,1,1],"min":[-1,-1,-1],"type":"VEC3"},{"bufferView":2,"componentType":5126,"count":24,"max":[0.25,0.578125],"min":[0.1640625,0.5703125],"type":"VEC2"},{"bufferView":3,"componentType":5123,"count":36,"max":[23],"min":[0],"type":"SCALAR"},{"bufferView":4,"componentType":5126,"count":24,"max":[-0.046875,0.765625,-0.21875],"min":[-0.078125,0.75,-0.25],"type":"VEC3"},{"bufferView":5,"componentType":5126,"count":24,"max":[1,1,1],"min":[-1,-1,-1],"type":"VEC3"},{"bufferView":6,"componentType":5126,"count":24,"max":[0.578125,0.578125],"min":[0.1484375,0.09375],"type":"VEC2"},{"bufferView":7,"componentType":5123,"count":36,"max":[23],"min":[0],"type":"SCALAR"},{"bufferView":8,"componentType":5126,"count":24,"max":[0.078125,0.78125,-0.21875],"min":[-0.078125,0.765625,-0.25],"type":"VEC3"},{"bufferView":9,"componentType":5126,"count":24,"max":[1,1,1],"min":[-1,-1,-1],"type":"VEC3"},{"bufferView":10,"componentType":5126,"count":24,"max":[0.5625,0.546875],"min":[0.1171875,0.125],"type":"VEC2"},{"bufferView":11,"componentType":5123,"count":36,"max":[23],"min":[0],"type":"SCALAR"},{"bufferView":12,"componentType":5126,"count":24,"max":[0.5,0.6875,0.5],"min":[-0.5,0,-0.5],"type":"VEC3"},{"bufferView":13,"componentType":5126,"count":24,"max":[1,1,1],"min":[-1,-1,-1],"type":"VEC3"},{"bufferView":14,"componentType":5126,"count":24,"max":[0.390625,0.46875],"min":[0,0],"type":"VEC2"},{"bufferView":15,"componentType":5123,"count":36,"max":[23],"min":[0],"type":"SCALAR"},{"bufferView":16,"componentType":5126,"count":24,"max":[0.5,1.3125,0.5],"min":[-0.5,0.75,0.375],"type":"VEC3"},{"bufferView":17,"componentType":5126,"count":24,"max":[1,1,1],"min":[-1,-1,-1],"type":"VEC3"},{"bufferView":18,"componentType":5126,"count":24,"max":[0.609375,0.5703125],"min":[0.265625,0],"type":"VEC2"},{"bufferView":19,"componentType":5123,"count":36,"max":[23],"min":[0],"type":"SCALAR"},{"bufferView":20,"componentType":5126,"count":24,"max":[0.5,0.75,0.5],"min":[-0.5,0.6875,0.3125],"type":"VEC3"},{"bufferView":21,"componentType":5126,"count":24,"max":[1,1,1],"min":[-1,-1,-1],"type":"VEC3"},{"bufferView":22,"componentType":5126,"count":24,"max":[0.59375,0.546875],"min":[0,0.15625],"type":"VEC2"},{"bufferView":23,"componentType":5123,"count":36,"max":[23],"min":[0],"type":"SCALAR"},{"bufferView":24,"componentType":5126,"count":24,"max":[0.5,0.75,-0.3125],"min":[-0.5,0.6875,-0.5],"type":"VEC3"},{"bufferView":25,"componentType":5126,"count":24,"max":[1,1,1],"min":[-1,-1,-1],"type":"VEC3"},{"bufferView":26,"componentType":5126,"count":24,"max":[0.640625,0.546875],"min":[0,0],"type":"VEC2"},{"bufferView":27,"componentType":5123,"count":36,"max":[23],"min":[0],"type":"SCALAR"},{"bufferView":28,"componentType":5126,"count":24,"max":[0.5,0.75,0.3125],"min":[0.3125,0.6875,-0.3125],"type":"VEC3"},{"bufferView":29,"componentType":5126,"count":24,"max":[1,1,1],"min":[-1,-1,-1],"type":"VEC3"},{"bufferView":30,"componentType":5126,"count":24,"max":[0.6015625,0.578125],"min":[0.25,0.3046875],"type":"VEC2"},{"bufferView":31,"componentType":5123,"count":36,"max":[23],"min":[0],"type":"SCALAR"},{"bufferView":32,"componentType":5126,"count":24,"max":[-0.3125,0.75,0.3125],"min":[-0.5,0.6875,-0.3125],"type":"VEC3"},{"bufferView":33,"componentType":5126,"count":24,"max":[1,1,1],"min":[-1,-1,-1],"type":"VEC3"},{"bufferView":34,"componentType":5126,"count":24,"max":[0.6015625,0.578125],"min":[0.4296875,0.40625],"type":"VEC2"},{"bufferView":35,"componentType":5123,"count":36,"max":[23],"min":[0],"type":"SCALAR"},{"bufferView":36,"componentType":5126,"count":24,"max":[0.296875,0.75,0.296875],"min":[-0.296875,0.6875,-0.296875],"type":"VEC3"},{"bufferView":37,"componentType":5126,"count":24,"max":[1,1,1],"min":[-1,-1,-1],"type":"VEC3"},{"bufferView":38,"componentType":5126,"count":24,"max":[0.609375,0.4609375],"min":[0.3828125,0.15625],"type":"VEC2"},{"bufferView":39,"componentType":5123,"count":36,"max":[23],"min":[0],"type":"SCALAR"},{"bufferView":40,"componentType":5126,"count":120,"max":[0.03125,-0.03125,-0.046875],"min":[0,-0.09375,-0.078125],"type":"VEC3"},{"bufferView":41,"componentType":5126,"count":120,"max":[1,1,1],"min":[-1,-1,-1],"type":"VEC3"},{"bufferView":42,"componentType":5126,"count":120,"max":[0.591796875,0.58984375],"min":[0.158203125,0.09375],"type":"VEC2"},{"bufferView":43,"componentType":5123,"count":144,"max":[119],"min":[0],"type":"SCALAR"},{"bufferView":44,"componentType":5126,"count":120,"max":[0.03125,-0.53125,-0.046875],"min":[0,-0.59375,-0.078125],"type":"VEC3"},{"bufferView":45,"componentType":5126,"count":120,"max":[1,1,1],"min":[-1,-1,-1],"type":"VEC3"},{"bufferView":46,"componentType":5126,"count":120,"max":[0.5836015343666077,0.59375],"min":[0.173828125,0.3671875],"type":"VEC2"},{"bufferView":47,"componentType":5123,"count":144,"max":[119],"min":[0],"type":"SCALAR"},{"bufferView":48,"componentType":5126,"count":24,"max":[0.078125,0.78125,-0.21875],"min":[-0.078125,0.765625,-0.25],"type":"VEC3"},{"bufferView":49,"componentType":5126,"count":24,"max":[1,1,1],"min":[-1,-1,-1],"type":"VEC3"},{"bufferView":50,"componentType":5126,"count":24,"max":[0.5703125,0.578125],"min":[0.2578125,0.3359375],"type":"VEC2"},{"bufferView":51,"componentType":5123,"count":36,"max":[23],"min":[0],"type":"SCALAR"},{"bufferView":52,"componentType":5126,"count":24,"max":[-0.046875,0.765625,-0.21875],"min":[-0.078125,0.75,-0.25],"type":"VEC3"},{"bufferView":53,"componentType":5126,"count":24,"max":[1,1,1],"min":[-1,-1,-1],"type":"VEC3"},{"bufferView":54,"componentType":5126,"count":24,"max":[0.578125,0.578125],"min":[0.2890625,0.484375],"type":"VEC2"},{"bufferView":55,"componentType":5123,"count":36,"max":[23],"min":[0],"type":"SCALAR"},{"bufferView":56,"componentType":5126,"count":24,"max":[0.078125,0.765625,-0.21875],"min":[0.046875,0.75,-0.25],"type":"VEC3"},{"bufferView":57,"componentType":5126,"count":24,"max":[1,1,1],"min":[-1,-1,-1],"type":"VEC3"},{"bufferView":58,"componentType":5126,"count":24,"max":[0.578125,0.5859375],"min":[0.09375,0.515625],"type":"VEC2"},{"bufferView":59,"componentType":5123,"count":36,"max":[23],"min":[0],"type":"SCALAR"},{"bufferView":60,"componentType":5126,"count":24,"max":[0.5,2.25,0.5],"min":[-0.5,1.3125,-0.375],"type":"VEC3"},{"bufferView":61,"componentType":5126,"count":24,"max":[1,1,1],"min":[-1,-1,-1],"type":"VEC3"},{"bufferView":62,"componentType":5126,"count":24,"max":[0.375,0.375],"min":[0,0],"type":"VEC2"},{"bufferView":63,"componentType":5123,"count":36,"max":[23],"min":[0],"type":"SCALAR"},{"bufferView":64,"componentType":5126,"count":120,"max":[0.375,-0.5625,-0.1875],"min":[0.25,-0.625,-0.3125],"type":"VEC3"},{"bufferView":65,"componentType":5126,"count":120,"max":[1,1,1],"min":[-1,-1,-1],"type":"VEC3"},{"bufferView":66,"componentType":5126,"count":120,"max":[0.568779706954956,0.5625],"min":[0.24372030794620514,0.078125],"type":"VEC2"},{"bufferView":67,"componentType":5123,"count":144,"max":[119],"min":[0],"type":"SCALAR"},{"bufferView":68,"componentType":5126,"count":24,"max":[0.5,1.5625,-0.375],"min":[-0.5,1.25,-0.4375],"type":"VEC3"},{"bufferView":69,"componentType":5126,"count":24,"max":[1,1,1],"min":[-1,-1,-1],"type":"VEC3"},{"bufferView":70,"componentType":5126,"count":24,"max":[0.640625,0.578125],"min":[0.078125,0.015625],"type":"VEC2"},{"bufferView":71,"componentType":5123,"count":36,"max":[23],"min":[0],"type":"SCALAR"},{"bufferView":72,"componentType":5126,"count":24,"max":[0.5,2.25,-0.375],"min":[-0.5,2.0625,-0.4375],"type":"VEC3"},{"bufferView":73,"componentType":5126,"count":24,"max":[1,1,1],"min":[-1,-1,-1],"type":"VEC3"},{"bufferView":74,"componentType":5126,"count":24,"max":[0.640625,0.578125],"min":[0.1171875,0.046875],"type":"VEC2"},{"bufferView":75,"componentType":5123,"count":36,"max":[23],"min":[0],"type":"SCALAR"},{"bufferView":76,"componentType":5126,"count":24,"max":[0.5,2.0625,-0.375],"min":[0.375,1.5625,-0.4375],"type":"VEC3"},{"bufferView":77,"componentType":5126,"count":24,"max":[1,1,1],"min":[-1,-1,-1],"type":"VEC3"},{"bufferView":78,"componentType":5126,"count":24,"max":[0.53125,0.5859375],"min":[0.1484375,0.078125],"type":"VEC2"},{"bufferView":79,"componentType":5123,"count":36,"max":[23],"min":[0],"type":"SCALAR"},{"bufferView":80,"componentType":5126,"count":24,"max":[-0.375,2.0625,-0.375],"min":[-0.5,1.5625,-0.4375],"type":"VEC3"},{"bufferView":81,"componentType":5126,"count":24,"max":[1,1,1],"min":[-1,-1,-1],"type":"VEC3"},{"bufferView":82,"componentType":5126,"count":24,"max":[0.390625,0.5859375],"min":[0,0.5234375],"type":"VEC2"},{"bufferView":83,"componentType":5123,"count":36,"max":[23],"min":[0],"type":"SCALAR"},{"bufferView":84,"componentType":5126,"count":24,"max":[0.359375,2.046875,-0.375],"min":[-0.359375,1.578125,-0.4375],"type":"VEC3"},{"bufferView":85,"componentType":5126,"count":24,"max":[1,1,1],"min":[-1,-1,-1],"type":"VEC3"},{"bufferView":86,"componentType":5126,"count":24,"max":[0.4921875,0.6015625],"min":[0.046875,0.328125],"type":"VEC2"},{"bufferView":87,"componentType":5123,"count":36,"max":[23],"min":[0],"type":"SCALAR"},{"bufferView":88,"componentType":5126,"count":120,"max":[0,-0.03125,-1.1102230246251565e-16],"min":[-0.03125,-0.09375,-0.03125],"type":"VEC3"},{"bufferView":89,"componentType":5126,"count":120,"max":[1,1,1],"min":[-1,-1,-1],"type":"VEC3"},{"bufferView":90,"componentType":5126,"count":120,"max":[0.5836015343666077,0.59375],"min":[0.11171093583106995,0.5625],"type":"VEC2"},{"bufferView":91,"componentType":5123,"count":144,"max":[119],"min":[0],"type":"SCALAR"},{"bufferView":92,"componentType":5126,"count":120,"max":[0,0.34375,-1.1102230246251565e-16],"min":[-0.03125,0.28125,-0.03125],"type":"VEC3"},{"bufferView":93,"componentType":5126,"count":120,"max":[1,1,1],"min":[-1,-1,-1],"type":"VEC3"},{"bufferView":94,"componentType":5126,"count":120,"max":[0.5914140343666077,0.59375],"min":[0.08046093583106995,0.078125],"type":"VEC2"},{"bufferView":95,"componentType":5123,"count":144,"max":[119],"min":[0],"type":"SCALAR"},{"bufferView":96,"componentType":5126,"count":120,"max":[-0.25,-0.5625,-0.1875],"min":[-0.375,-0.625,-0.3125],"type":"VEC3"},{"bufferView":97,"componentType":5126,"count":120,"max":[1,1,1],"min":[-1,-1,-1],"type":"VEC3"},{"bufferView":98,"componentType":5126,"count":120,"max":[0.576592206954956,0.5703125],"min":[0.09375,0.078125],"type":"VEC2"},{"bufferView":99,"componentType":5123,"count":144,"max":[119],"min":[0],"type":"SCALAR"}],"materials":[{"pbrMetallicRoughness":{"metallicFactor":0,"roughnessFactor":1,"baseColorTexture":{"index":0}},"alphaMode":"MASK","alphaCutoff":0.05,"doubleSided":true}],"textures":[{"sampler":0,"source":0}],"samplers":[{"magFilter":9728,"minFilter":9728,"wrapS":33071,"wrapT":33071}],"images":[{"mimeType":"image/png","uri":"data:image/png;base64,"}],"meshes":[{"primitives":[{"mode":4,"attributes":{"POSITION":0,"NORMAL":1,"TEXCOORD_0":2},"indices":3,"material":0}]},{"primitives":[{"mode":4,"attributes":{"POSITION":4,"NORMAL":5,"TEXCOORD_0":6},"indices":7,"material":0}]},{"primitives":[{"mode":4,"attributes":{"POSITION":8,"NORMAL":9,"TEXCOORD_0":10},"indices":11,"material":0}]},{"primitives":[{"mode":4,"attributes":{"POSITION":12,"NORMAL":13,"TEXCOORD_0":14},"indices":15,"material":0}]},{"primitives":[{"mode":4,"attributes":{"POSITION":16,"NORMAL":17,"TEXCOORD_0":18},"indices":19,"material":0}]},{"primitives":[{"mode":4,"attributes":{"POSITION":20,"NORMAL":21,"TEXCOORD_0":22},"indices":23,"material":0}]},{"primitives":[{"mode":4,"attributes":{"POSITION":24,"NORMAL":25,"TEXCOORD_0":26},"indices":27,"material":0}]},{"primitives":[{"mode":4,"attributes":{"POSITION":28,"NORMAL":29,"TEXCOORD_0":30},"indices":31,"material":0}]},{"primitives":[{"mode":4,"attributes":{"POSITION":32,"NORMAL":33,"TEXCOORD_0":34},"indices":35,"material":0}]},{"primitives":[{"mode":4,"attributes":{"POSITION":36,"NORMAL":37,"TEXCOORD_0":38},"indices":39,"material":0}]},{"primitives":[{"mode":4,"attributes":{"POSITION":40,"NORMAL":41,"TEXCOORD_0":42},"indices":43,"material":0}]},{"primitives":[{"mode":4,"attributes":{"POSITION":44,"NORMAL":45,"TEXCOORD_0":46},"indices":47,"material":0}]},{"primitives":[{"mode":4,"attributes":{"POSITION":48,"NORMAL":49,"TEXCOORD_0":50},"indices":51,"material":0}]},{"primitives":[{"mode":4,"attributes":{"POSITION":52,"NORMAL":53,"TEXCOORD_0":54},"indices":55,"material":0}]},{"primitives":[{"mode":4,"attributes":{"POSITION":56,"NORMAL":57,"TEXCOORD_0":58},"indices":59,"material":0}]},{"primitives":[{"mode":4,"attributes":{"POSITION":60,"NORMAL":61,"TEXCOORD_0":62},"indices":63,"material":0}]},{"primitives":[{"mode":4,"attributes":{"POSITION":64,"NORMAL":65,"TEXCOORD_0":66},"indices":67,"material":0}]},{"primitives":[{"mode":4,"attributes":{"POSITION":68,"NORMAL":69,"TEXCOORD_0":70},"indices":71,"material":0}]},{"primitives":[{"mode":4,"attributes":{"POSITION":72,"NORMAL":73,"TEXCOORD_0":74},"indices":75,"material":0}]},{"primitives":[{"mode":4,"attributes":{"POSITION":76,"NORMAL":77,"TEXCOORD_0":78},"indices":79,"material":0}]},{"primitives":[{"mode":4,"attributes":{"POSITION":80,"NORMAL":81,"TEXCOORD_0":82},"indices":83,"material":0}]},{"primitives":[{"mode":4,"attributes":{"POSITION":84,"NORMAL":85,"TEXCOORD_0":86},"indices":87,"material":0}]},{"primitives":[{"mode":4,"attributes":{"POSITION":88,"NORMAL":89,"TEXCOORD_0":90},"indices":91,"material":0}]},{"primitives":[{"mode":4,"attributes":{"POSITION":92,"NORMAL":93,"TEXCOORD_0":94},"indices":95,"material":0}]},{"primitives":[{"mode":4,"attributes":{"POSITION":96,"NORMAL":97,"TEXCOORD_0":98},"indices":99,"material":0}]}]}