{"asset":{"version":"2.0","generator":"Blockbench 4.9.4 glTF exporter"},"scenes":[{"nodes":[1],"name":"blockbench_export"}],"scene":0,"nodes":[{"rotation":[0.7071067811865475,0,0,0.7071067811865476],"name":"plane","mesh":0},{"children":[0]}],"bufferViews":[{"buffer":0,"byteOffset":0,"byteLength":960,"target":34962,"byteStride":12},{"buffer":0,"byteOffset":960,"byteLength":960,"target":34962,"byteStride":12},{"buffer":0,"byteOffset":1920,"byteLength":640,"target":34962,"byteStride":8},{"buffer":0,"byteOffset":2560,"byteLength":240,"target":34963}],"buffers":[{"byteLength":2800,"uri":"data:application/octet-stream;base64,"}],"accessors":[{"bufferView":0,"componentType":5126,"count":80,"max":[1.5,0,0],"min":[-1.5,-0.0625,-1.75],"type":"VEC3"},{"bufferView":1,"componentType":5126,"count":80,"max":[0.1033456027507782,1,0.14789968729019165],"min":[-0.10360608249902725,0.9797632098197937,-0.1959526538848877],"type":"VEC3"},{"bufferView":2,"componentType":5126,"count":80,"max":[0.7530731558799744,0.45272886753082275],"min":[0.0008330667624250054,0],"type":"VEC2"},{"bufferView":3,"componentType":5123,"count":120,"max":[79],"min":[0],"type":"SCALAR"}],"materials":[{"pbrMetallicRoughness":{"metallicFactor":0,"roughnessFactor":1,"baseColorTexture":{"index":0}},"alphaMode":"MASK","alphaCutoff":0.05,"doubleSided":true}],"textures":[{"sampler":0,"source":0}],"samplers":[{"magFilter":9728,"minFilter":9728,"wrapS":33071,"wrapT":33071}],"images":[{"mimeType":"image/png","uri":"data:image/png;base64,"}],"meshes":[{"primitives":[{"mode":4,"attributes":{"POSITION":0,"NORMAL":1,"TEXCOORD_0":2},"indices":3,"material":0}]}]}