{"asset":{"version":"2.0","generator":"Blockbench 4.9.4 glTF exporter"},"scenes":[{"nodes":[4],"name":"blockbench_export"}],"scene":0,"nodes":[{"rotation":[0,0.3826834323650898,0,0.9238795325112867],"name":"plane","mesh":0},{"name":"plane","mesh":1},{"rotation":[0,0.9537169507482268,0,0.3007057995042733],"name":"plane","mesh":2},{"name":"Papers","children":[0,1,2]},{"children":[3]}],"bufferViews":[{"buffer":0,"byteOffset":0,"byteLength":144,"target":34962,"byteStride":12},{"buffer":0,"byteOffset":144,"byteLength":144,"target":34962,"byteStride":12},{"buffer":0,"byteOffset":288,"byteLength":96,"target":34962,"byteStride":8},{"buffer":0,"byteOffset":384,"byteLength":36,"target":34963},{"buffer":0,"byteOffset":420,"byteLength":144,"target":34962,"byteStride":12},{"buffer":0,"byteOffset":564,"byteLength":144,"target":34962,"byteStride":12},{"buffer":0,"byteOffset":708,"byteLength":96,"target":34962,"byteStride":8},{"buffer":0,"byteOffset":804,"byteLength":36,"target":34963},{"buffer":0,"byteOffset":840,"byteLength":144,"target":34962,"byteStride":12},{"buffer":0,"byteOffset":984,"byteLength":144,"target":34962,"byteStride":12},{"buffer":0,"byteOffset":1128,"byteLength":96,"target":34962,"byteStride":8},{"buffer":0,"byteOffset":1224,"byteLength":36,"target":34963}],"buffers":[{"byteLength":1260,"uri":"data:application/octet-stream;base64,"}],"accessors":[{"bufferView":0,"componentType":5126,"count":12,"max":[0.25,0.0031250000465661287,0.859375],"min":[-0.25,0.0031250000465661287,-0.0625],"type":"VEC3"},{"bufferView":1,"componentType":5126,"count":12,"max":[0,1,0],"min":[0,1,0],"type":"VEC3"},{"bufferView":2,"componentType":5126,"count":12,"max":[0.25,0.9921875],"min":[0,0.53125],"type":"VEC2"},{"bufferView":3,"componentType":5123,"count":18,"max":[11],"min":[0],"type":"SCALAR"},{"bufferView":4,"componentType":5126,"count":12,"max":[0.25,0,0.5],"min":[-0.25,0,-0.5],"type":"VEC3"},{"bufferView":5,"componentType":5126,"count":12,"max":[0,1,0],"min":[0,1,0],"type":"VEC3"},{"bufferView":6,"componentType":5126,"count":12,"max":[0.25,0.5],"min":[0,0],"type":"VEC2"},{"bufferView":7,"componentType":5123,"count":18,"max":[11],"min":[0],"type":"SCALAR"},{"bufferView":8,"componentType":5126,"count":12,"max":[0.25,-0.0031250000465661287,-0.125],"min":[-0.25,-0.0031250000465661287,-1.078125],"type":"VEC3"},{"bufferView":9,"componentType":5126,"count":12,"max":[0,1,0],"min":[0,1,0],"type":"VEC3"},{"bufferView":10,"componentType":5126,"count":12,"max":[0.53125,0.4765625],"min":[0.28125,0],"type":"VEC2"},{"bufferView":11,"componentType":5123,"count":18,"max":[11],"min":[0],"type":"SCALAR"}],"materials":[{"pbrMetallicRoughness":{"metallicFactor":0,"roughnessFactor":1,"baseColorTexture":{"index":0}},"alphaMode":"MASK","alphaCutoff":0.05,"doubleSided":true}],"textures":[{"sampler":0,"source":0}],"samplers":[{"magFilter":9728,"minFilter":9728,"wrapS":33071,"wrapT":33071}],"images":[{"mimeType":"image/png","uri":"data:image/png;base64,"}],"meshes":[{"primitives":[{"mode":4,"attributes":{"POSITION":0,"NORMAL":1,"TEXCOORD_0":2},"indices":3,"material":0}]},{"primitives":[{"mode":4,"attributes":{"POSITION":4,"NORMAL":5,"TEXCOORD_0":6},"indices":7,"material":0}]},{"primitives":[{"mode":4,"attributes":{"POSITION":8,"NORMAL":9,"TEXCOORD_0":10},"indices":11,"material":0}]}]}